<svg xmlns="http://www.w3.org/2000/svg" height="127.5" width="495.3" xml:space="preserve" version="1.1" style=""><rect id="backgroundrect" width="100%" height="100%" x="0" y="0" fill="none" stroke="none"/><style id="style7427" type="text/css">.st2{fill:#282828}</style><g class="currentLayer" style=""><title>Layer 1</title><g id="g7433" class=""><path id="path7429" d="M177.0081059575081,34.92162089347839 c-1.4,-5.2 -5.5,-9.3 -10.7,-10.7 C156.80810595750808,21.621620893478394 118.80810595750809,21.621620893478394 118.80810595750809,21.621620893478394 s-38,0 -47.5,2.5 C66.20810595750808,25.521620893478392 62.008105957508086,29.721620893478395 60.60810595750809,34.92162089347839 C58.10810595750809,44.42162089347839 58.10810595750809,64.1216208934784 58.10810595750809,64.1216208934784 s0,19.8 2.5,29.2 C62.008105957508086,98.5216208934784 66.10810595750809,102.6216208934784 71.30810595750809,104.0216208934784 C80.90810595750808,106.6216208934784 118.80810595750809,106.6216208934784 118.80810595750809,106.6216208934784 s38,0 47.5,-2.5 c5.2,-1.4 9.3,-5.5 10.7,-10.7 c2.5,-9.5 2.5,-29.2 2.5,-29.2 s0.1,-19.8 -2.5,-29.3 z" fill="red"/><path id="polygon7431" fill="#fff" d="M106.70810595750808,45.92162089347839 v36.4 l31.6,-18.2 z"/></g><g id="g7451" class=""><g id="g7449"><path id="path7435" d="M254.0027053833008,99.02162065505982 c-2.4,-1.6 -4.1,-4.1 -5.1,-7.6 c-1,-3.4 -1.5,-8 -1.5,-13.6 v-7.7 c0,-5.7 0.6000000000000002,-10.3 1.7000000000000002,-13.8 c1.2,-3.5 3,-6 5.4,-7.6 c2.5,-1.6 5.7,-2.4 9.7,-2.4 c3.9,0 7.1,0.8 9.5,2.4 c2.4,1.6 4.1,4.2 5.2,7.6 c1.1,3.4 1.7000000000000002,8 1.7000000000000002,13.8 v7.7 c0,5.7 -0.5,10.2 -1.6,13.7 c-1.1,3.4 -2.8,6 -5.2,7.6 c-2.4,1.6 -5.7,2.4 -9.8,2.4 c-4.2,-0.1 -7.6,-0.9 -10,-2.5 zm13.5,-8.4 c0.7000000000000002,-1.7000000000000002 1,-4.6 1,-8.5 V65.52162065505982 c0,-3.8 -0.3000000000000001,-6.6 -1,-8.4 c-0.7000000000000002,-1.8 -1.8,-2.6 -3.5,-2.6 c-1.6,0 -2.8,0.9 -3.4,2.6 c-0.7000000000000002,1.8 -1,4.6 -1,8.4 v16.6 c0,3.9 0.3000000000000001,6.8 1,8.5 c0.6000000000000002,1.7000000000000002 1.8,2.6 3.5,2.6 c1.6,0 2.7,-0.8 3.4,-2.6 z" class="st2"/><path id="path7437" d="M438.60270538330076,77.92162065505981 V80.62162065505981 c0,3.4 0.1,6 0.3000000000000001,7.7 c0.2,1.7000000000000002 0.6000000000000002,3 1.3,3.7 c0.6000000000000002,0.8 1.6,1.2 3,1.2 c1.8,0 3,-0.7000000000000002 3.7,-2.1 c0.7000000000000002,-1.4 1,-3.7 1.1,-7 l10.3,0.6000000000000002 c0.1,0.5 0.1,1.1 0.1,1.9 c0,4.9 -1.3,8.6 -4,11 c-2.7,2.4 -6.5,3.6 -11.4,3.6 c-5.9,0 -10,-1.9 -12.4,-5.6 c-2.4,-3.7 -3.6,-9.4 -3.6,-17.2 v-9.3 c0,-8 1.2,-13.8 3.7,-17.5 c2.5,-3.7 6.7,-5.5 12.6,-5.5 c4.1,0 7.3,0.8 9.5,2.3 c2.2,1.5 3.7,3.9 4.6,7 c0.9,3.2 1.3,7.6 1.3,13.2 v9.1 h-20.1 zm1.5,-22.4 c-0.6000000000000002,0.8 -1,2 -1.2,3.7 c-0.2,1.7000000000000002 -0.3000000000000001,4.3 -0.3000000000000001,7.8 v3.8 h8.8 v-3.8 c0,-3.4 -0.1,-6 -0.3000000000000001,-7.8 c-0.2,-1.8 -0.7000000000000002,-3 -1.3,-3.7 c-0.6000000000000002,-0.7000000000000002 -1.6,-1.1 -2.8,-1.1 c-1.4,-0.1 -2.3,0.3000000000000001 -2.9,1.1 z" class="st2"/><path id="path7439" d="M224.80270538330078,76.92162065505981 L211.20270538330078,27.621620655059814 h11.9 l4.8,22.3 c1.2,5.5 2.1,10.2 2.7,14.1 h0.3000000000000001 c0.4,-2.8 1.3,-7.4 2.7,-14 l5,-22.4 h11.9 L236.70270538330078,76.92162065505981 v23.6 h-11.8 V76.92162065505981 z" class="st2"/><path id="path7441" d="M319.3027053833008,47.32162065505982 V100.62162065505981 h-9.4 l-1,-6.5 h-0.3000000000000001 c-2.5,4.9 -6.4,7.4 -11.5,7.4 c-3.5,0 -6.1,-1.2 -7.8,-3.5 c-1.7000000000000002,-2.3 -2.5,-5.9 -2.5,-10.9 V47.32162065505982 h12 v39.1 c0,2.4 0.3000000000000001,4.1 0.8,5.1 s1.4,1.5 2.6,1.5 c1,0 2,-0.3000000000000001 3,-1 c1,-0.6000000000000002 1.7000000000000002,-1.4 2.1,-2.4 V47.32162065505982 z" class="st2"/><path id="path7443" d="M380.8027053833008,47.32162065505982 V100.62162065505981 h-9.4 l-1,-6.5 h-0.3000000000000001 c-2.5,4.9 -6.4,7.4 -11.5,7.4 c-3.5,0 -6.1,-1.2 -7.8,-3.5 c-1.7000000000000002,-2.3 -2.5,-5.9 -2.5,-10.9 V47.32162065505982 h12 v39.1 c0,2.4 0.3000000000000001,4.1 0.8,5.1 s1.4,1.5 2.6,1.5 c1,0 2,-0.3000000000000001 3,-1 c1,-0.6000000000000002 1.7000000000000002,-1.4 2.1,-2.4 V47.32162065505982 z" class="st2"/><path id="path7445" d="M351.90270538330077,37.32162065505982 h-11.9 v63.2 h-11.7 V37.32162065505982 h-11.9 V27.621620655059814 h35.5 z" class="st2"/><path id="path7447" d="M420.5027053833008,55.82162065505982 c-0.7000000000000002,-3.4 -1.9,-5.8 -3.5,-7.3 s-3.9,-2.3 -6.7,-2.3 c-2.2,0 -4.3,0.6000000000000002 -6.2,1.9 c-1.9,1.2 -3.4,2.9 -4.4,4.9 h-0.1 V24.921620655059815 h-11.6 v75.6 h9.9 l1.2,-5 h0.3000000000000001 c0.9,1.8 2.3,3.2 4.2,4.3 c1.9,1 3.9,1.6 6.2,1.6 c4.1,0 7,-1.9 8.9,-5.6 c1.9,-3.7 2.9,-9.6 2.9,-17.5 v-8.4 c-0.1,-6.1 -0.4,-10.8 -1.1,-14.1 zm-11,21.7 c0,3.9 -0.2,6.9 -0.5,9.1 c-0.3000000000000001,2.2 -0.9,3.8 -1.6,4.7 c-0.8,0.9 -1.8,1.4 -3,1.4 c-1,0 -1.9,-0.2 -2.7,-0.7000000000000002 c-0.8,-0.5 -1.5,-1.2 -2,-2.1 V59.721620655059816 c0.4,-1.4 1.1,-2.6 2.1,-3.6 c1,-0.9 2.1,-1.4 3.2,-1.4 c1.2,0 2.2,0.5 2.8,1.4 c0.7000000000000002,1 1.1,2.6 1.4,4.8 c0.3000000000000001,2.3 0.4,5.5 0.4,9.6 v7 z" class="st2"/></g></g></g></svg>